<svg width="43" height="43" viewBox="0 0 43 43" fill="none" xmlns="http://www.w3.org/2000/svg">
<g clip-path="url(#clip0)">
<path d="M10.75 13.0536H32.25V22.2679H10.75V13.0536Z" fill="#F2F2F2"/>
<path d="M16.125 5.375H26.875C27.3358 5.375 27.6429 5.06793 27.6429 4.60714V0.767857C27.6429 0.307068 27.3358 0 26.875 0H16.125C15.6642 0 15.3572 0.307068 15.3572 0.767857V4.60714C15.3572 5.06793 15.6642 5.375 16.125 5.375ZM18.4286 2.30357H24.5715V3.83929H18.4286V2.30357Z" fill="#F2F2F2"/>
<path d="M38.3929 2.30359H29.1786V3.8393H37.625V35.6285L31.7892 41.4643H5.37501V3.8393H12.2857V5.37502H6.91072V39.9286H30.7143V34.5536H36.0893V5.37502H29.0249C28.7178 6.2966 27.8731 6.91073 26.875 6.91073H16.125C14.8195 6.91073 13.8214 5.91267 13.8214 4.60716V2.30359H4.60715C4.14636 2.30359 3.83929 2.61066 3.83929 3.07145V42.2322C3.83929 42.6929 4.14636 43 4.60715 43H38.3929C38.8537 43 39.1607 42.6929 39.1607 42.2322V3.07145C39.1607 2.61066 38.8537 2.30359 38.3929 2.30359ZM9.21429 25.3393H14.5893V26.875H9.21429V25.3393ZM9.21429 28.4107H19.1964V29.9464H9.21429V28.4107ZM9.21429 31.4822H23.8036V33.0179H9.21429V31.4822ZM28.4107 36.0893H9.21429V34.5536H28.4107V36.0893ZM33.7857 33.0179H25.3393V31.4822H33.7857V33.0179ZM33.7857 29.9464H20.7322V28.4107H33.7857V29.9464ZM33.7857 26.875H16.125V25.3393H33.7857V26.875ZM16.125 8.44644H26.875V9.98216H16.125V8.44644ZM33.7857 11.5179V23.8036H9.21429V11.5179H33.7857Z" fill="#F2F2F2"/>
<path d="M35.0144 36.0893H32.25V38.8537L35.0144 36.0893Z" fill="#F2F2F2"/>
</g>
<defs>
<clipPath id="clip0">
<rect width="43" height="43" fill="white"/>
</clipPath>
</defs>
</svg>
