<svg width="32" height="33" viewBox="0 0 32 33" fill="none" xmlns="http://www.w3.org/2000/svg">
<path d="M21.069 11.9429C21.069 9.07291 18.795 6.73816 16 6.73816C13.205 6.73816 10.931 9.07291 10.931 11.9429C10.931 14.8128 13.205 17.1476 16 17.1476C18.795 17.1476 21.069 14.8128 21.069 11.9429Z" fill="white"/>
<path d="M15.9975 32.9979L18.052 30.2265C20.1965 27.2987 27.193 17.3235 27.193 11.8697C27.1935 4.77109 22.6955 0.0020752 16 0.0020752C9.3045 0.0020752 4.8065 4.77109 4.8065 11.8702C4.8065 17.7432 13.0225 28.9714 13.957 30.229L15.9975 32.9979ZM8.931 11.9429C8.931 7.936 12.102 4.6757 16 4.6757C19.898 4.6757 23.069 7.936 23.069 11.9429C23.069 15.9498 19.898 19.2101 16 19.2101C12.102 19.2101 8.931 15.9504 8.931 11.9429Z" fill="white"/>
</svg>
