<svg width="27" height="27" viewBox="0 0 27 27" fill="none" xmlns="http://www.w3.org/2000/svg">
<path d="M13.0974 0.581665C5.96049 0.581665 0.174744 6.37098 0.174744 13.512C0.174744 20.6529 5.96049 26.4429 13.0974 26.4429C20.2344 26.4429 26.0206 20.6531 26.0206 13.512C26.0204 6.37098 20.2344 0.581665 13.0974 0.581665ZM17.5108 8.85291C17.5108 8.97632 17.4109 9.07648 17.2873 9.07648H14.1414V10.7683H17.2871C17.4107 10.7683 17.5105 10.8685 17.5105 10.9919V14.1392C17.5105 14.2628 17.4107 14.3627 17.2871 14.3627H14.3648V21.2695C14.3648 21.3931 14.265 21.4931 14.1414 21.4931H11.1684C11.0448 21.4931 10.945 21.3931 10.945 21.2695V14.363H8.90778C8.78421 14.363 8.68433 14.263 8.68433 14.1394V10.9921C8.68433 10.8687 8.78421 10.7685 8.90778 10.7685H10.945V9.49234C10.945 9.474 10.9472 9.45634 10.9512 9.43935C10.953 7.62144 11.3416 5.54173 14.3181 5.53234C14.3246 5.53189 14.3315 5.53144 14.3382 5.53144H17.2871C17.4107 5.53144 17.5105 5.63161 17.5105 5.75502V8.85291H17.5108Z" fill="#F2F2F2"/>
</svg>
