<svg width="33" height="32" viewBox="0 0 33 32" fill="none" xmlns="http://www.w3.org/2000/svg">
<g clip-path="url(#clip0)">
<path d="M7.3135 19.338L6.16481 23.4962L1.9664 23.5823C0.711691 21.3257 0 18.7437 0 16C0 13.3468 0.665414 10.8448 1.84491 8.64172H1.84581L5.58357 9.30622L7.22094 12.909C6.87824 13.8778 6.69146 14.9178 6.69146 16C6.69159 17.1745 6.91099 18.2998 7.3135 19.338Z" fill="#FBBB00"/>
<path d="M32.7118 13.011C32.9012 13.9789 33.0001 14.9784 33.0001 16C33.0001 17.1455 32.8759 18.2629 32.6392 19.3407C31.836 23.0084 29.7372 26.211 26.8298 28.4774L26.8289 28.4765L22.121 28.2436L21.4547 24.2101C23.3839 23.113 24.8916 21.396 25.6858 19.3407H16.8628V13.011H25.8145H32.7118Z" fill="#518EF8"/>
<path d="M26.8287 28.4765L26.8296 28.4773C24.002 30.6813 20.41 32 16.4999 32C10.2163 32 4.7532 28.5943 1.96631 23.5824L7.31341 19.338C8.70682 22.9441 12.2942 25.5112 16.4999 25.5112C18.3076 25.5112 20.0012 25.0373 21.4544 24.2101L26.8287 28.4765Z" fill="#28B446"/>
<path d="M27.032 3.6835L21.6867 7.927C20.1827 7.01538 18.4048 6.48875 16.5001 6.48875C12.1992 6.48875 8.54468 9.17356 7.22107 12.909L1.84587 8.64175H1.84497C4.59106 3.50769 10.1231 0 16.5001 0C20.5036 0 24.1744 1.38288 27.032 3.6835Z" fill="#F14336"/>
</g>
<defs>
<clipPath id="clip0">
<rect width="33" height="32" fill="white"/>
</clipPath>
</defs>
</svg>
