<svg width="28" height="30" viewBox="0 0 28 30" fill="none" xmlns="http://www.w3.org/2000/svg">
<g clip-path="url(#clip0)">
<path d="M21.35 18.75C19.425 18.5625 18.375 21.375 16.975 22.125C14.7 23.4375 10.5 18.75 10.5 18.75C10.5 18.75 6.125 14.25 7.175 11.8125C8.05 10.3125 10.675 9.18754 10.5 7.12504C10.325 5.25004 6.475 -1.49996 4.55 0.375044C0.349999 4.50004 -6.79865e-08 6.18754 -6.79865e-08 9.56254C-0.175 15.375 6.825 22.6875 6.825 22.6875C7.525 23.4375 13.65 30.1875 19.075 30C22.225 30 23.8 29.625 27.65 25.125C29.4 23.0625 23.275 18.9375 21.35 18.75Z" fill="white"/>
</g>
<defs>
<clipPath id="clip0">
<rect width="28" height="30" fill="white"/>
</clipPath>
</defs>
</svg>
