<svg width="33" height="39" viewBox="0 0 33 39" fill="none" xmlns="http://www.w3.org/2000/svg">
<path d="M29.3333 0H3.66667C1.65 0 0 1.65 0 3.66667V29.3333C0 31.35 1.65 33 3.66667 33H11L16.5 38.5L22 33H29.3333C31.35 33 33 31.35 33 29.3333V3.66667C33 1.65 31.35 0 29.3333 0ZM16.5 6.05C19.25 6.05 21.45 8.25 21.45 11C21.45 13.75 19.25 15.95 16.5 15.95C13.75 15.95 11.55 13.75 11.55 11C11.55 8.25 13.75 6.05 16.5 6.05ZM27.5 25.6667H5.5V24.0167C5.5 20.35 12.8333 18.3333 16.5 18.3333C20.1667 18.3333 27.5 20.35 27.5 24.0167V25.6667Z" fill="#F2F2F2"/>
</svg>
