<svg width="27" height="28" viewBox="0 0 27 28" fill="none" xmlns="http://www.w3.org/2000/svg">
<g clip-path="url(#clip0)">
<path fill-rule="evenodd" clip-rule="evenodd" d="M13.7157 0.829224C6.39436 0.829224 0.439026 6.78623 0.439026 14.1096C0.439026 17.014 1.37566 19.7075 2.96786 21.8937L1.3131 26.8279L6.4177 25.1965C8.51721 26.5862 11.0227 27.3902 13.7234 27.3902C21.0447 27.3902 27 21.433 27 14.1098C27 6.78646 21.0447 0.829443 13.7234 0.829443H13.7157V0.829224ZM10.0081 7.57506C9.75058 6.95832 9.55541 6.93497 9.16529 6.9191C9.03246 6.91139 8.88443 6.90369 8.72032 6.90369C8.21279 6.90369 7.68213 7.05198 7.36206 7.37985C6.97194 7.77801 6.00401 8.70697 6.00401 10.6121C6.00401 12.5172 7.39334 14.3597 7.58058 14.6175C7.77575 14.8748 10.2892 18.8411 14.1917 20.4575C17.2435 21.7223 18.1491 21.6051 18.8436 21.4568C19.8582 21.2382 21.1306 20.4884 21.4507 19.583C21.7707 18.6771 21.7707 17.9042 21.6769 17.7402C21.5833 17.5763 21.3255 17.4829 20.9354 17.2874C20.5453 17.0922 18.6484 16.1553 18.2894 16.0303C17.938 15.8977 17.6025 15.9446 17.3373 16.3194C16.9626 16.8425 16.5959 17.3736 16.2991 17.6935C16.065 17.9434 15.6823 17.9747 15.3625 17.8418C14.9332 17.6624 13.7313 17.2405 12.2481 15.921C11.1007 14.8984 10.3202 13.6259 10.094 13.2434C9.86756 12.8532 10.0706 12.6265 10.2499 12.4158C10.4451 12.1737 10.6324 12.002 10.8275 11.7755C11.0227 11.5492 11.132 11.432 11.2569 11.1665C11.3897 10.9089 11.2959 10.6434 11.2022 10.4481C11.1086 10.2529 10.3282 8.34781 10.0081 7.57506Z" fill="#F2F2F2"/>
</g>
<defs>
<clipPath id="clip0">
<rect x="0.439026" y="0.829224" width="26.561" height="26.561" fill="white"/>
</clipPath>
</defs>
</svg>
