<svg width="36" height="35" viewBox="0 0 36 35" fill="none" xmlns="http://www.w3.org/2000/svg">
<g clip-path="url(#clip0)">
<path d="M18.1145 30.3511C14.2547 30.2294 10.5842 30.1348 6.91368 29.9928C6.1228 29.959 5.31839 29.8374 4.54778 29.6549C3.1012 29.3169 2.10076 28.4449 1.58703 27.0186C1.17468 25.8694 1.02597 24.6865 0.917814 23.4832C0.681223 20.6577 0.681223 17.8321 0.796139 15.0065C0.863736 13.4113 0.904294 11.8024 1.33016 10.2545C1.58703 9.32838 1.89797 8.42258 2.6483 7.75337C3.43919 7.0436 4.36527 6.61774 5.41979 6.57042C8.31295 6.42846 11.1993 6.25271 14.0925 6.22567C17.9861 6.18511 21.8865 6.23919 25.7801 6.31355C27.4632 6.34735 29.1599 6.43522 30.8296 6.65153C32.3573 6.85433 33.4997 7.70605 34.108 9.19319C34.5745 10.3356 34.7502 11.5321 34.8516 12.7488C35.1152 15.7974 35.122 18.8461 34.9733 21.8947C34.8989 23.4427 34.8246 24.9974 34.3852 26.5048C33.885 28.2353 32.8237 29.3777 31.0526 29.7698C30.3632 29.9185 29.6466 29.9726 28.9436 29.9996C25.2663 30.128 21.5958 30.243 18.1145 30.3511ZM14.3764 22.6653C17.4588 21.07 20.5075 19.4882 23.617 17.8727C20.5142 16.2503 17.4656 14.6618 14.3764 13.0462C14.3764 16.2706 14.3764 19.4409 14.3764 22.6653Z" fill="#F2F2F2"/>
</g>
<defs>
<clipPath id="clip0">
<rect x="0.512207" width="34.6098" height="34.6098" fill="white"/>
</clipPath>
</defs>
</svg>
